<?xml version="1.0" standalone="no"?>
<!DOCTYPE svg PUBLIC "-//W3C//DTD SVG 20010904//EN"
 "http://www.w3.org/TR/2001/REC-SVG-20010904/DTD/svg10.dtd">
<svg version="1.0" xmlns="http://www.w3.org/2000/svg"
 width="1024.000000pt" height="1024.000000pt" viewBox="0 0 1024.000000 1024.000000"
 preserveAspectRatio="xMidYMid meet">
<metadata>
Created by potrace 1.11, written by Peter Selinger 2001-2013
</metadata>
<g transform="translate(0.000000,1024.000000) scale(0.100000,-0.100000)"
fill="#000000" stroke="none">
<path d="M0 8384 l0 -585 354 -592 c389 -651 516 -864 531 -888 6 -9 17 -29
26 -45 10 -16 90 -150 179 -299 90 -148 176 -295 193 -325 16 -30 34 -60 38
-66 11 -13 169 -277 169 -281 0 -1 20 -34 45 -73 25 -39 45 -72 45 -74 0 -3
96 -164 140 -236 5 -8 25 -42 45 -75 19 -33 40 -67 45 -75 16 -25 122 -204
134 -225 24 -44 639 -1072 655 -1095 10 -14 21 -32 25 -40 4 -8 12 -24 19 -35
12 -19 93 -155 131 -218 10 -18 192 -322 404 -677 212 -355 389 -652 394 -660
5 -8 80 -134 167 -280 l159 -265 379 -3 380 -2 0 581 0 582 -230 391 c-126
215 -242 416 -259 446 -17 30 -36 62 -42 70 -6 8 -17 26 -24 39 -44 77 -49 85
-429 736 -77 132 -149 256 -160 275 -11 19 -49 85 -85 145 -187 315 -578 988
-578 995 0 5 -3 10 -8 12 -6 3 -40 60 -155 258 -11 19 -31 55 -45 80 -14 25
-35 61 -47 80 -12 19 -33 55 -47 80 -14 25 -72 124 -128 220 -57 96 -149 253
-204 348 -56 95 -123 210 -149 255 -27 45 -59 100 -71 122 -13 22 -54 92 -91
155 -38 63 -82 140 -100 170 -17 30 -80 138 -140 240 -91 156 -226 386 -295
505 -9 17 -64 109 -120 205 -57 96 -115 196 -129 221 -14 25 -75 130 -136 232
-60 103 -118 203 -128 222 l-17 35 -420 0 -420 0 0 -586z"/>
<path d="M1969 8928 c0 -24 0 -288 0 -588 l0 -545 139 -232 c77 -128 142 -236
144 -240 1 -4 95 -161 207 -348 113 -187 209 -349 216 -360 6 -11 143 -240
304 -510 162 -269 301 -503 311 -520 9 -16 71 -120 137 -230 66 -110 295 -492
508 -850 213 -357 412 -690 441 -738 30 -49 54 -93 54 -98 0 -5 4 -9 8 -9 4 0
18 -19 30 -42 12 -24 26 -50 32 -58 13 -20 150 -250 164 -275 6 -11 159 -267
340 -570 181 -302 386 -645 455 -761 69 -116 189 -317 266 -447 l140 -236 376
-1 c293 0 378 3 381 12 2 7 4 269 3 583 l-1 570 -150 255 c-83 140 -162 275
-176 300 -14 25 -94 162 -178 305 -205 350 -529 903 -550 940 -10 17 -116 199
-238 406 -121 207 -231 396 -245 420 -13 24 -87 150 -163 279 -135 232 -1080
1847 -1114 1905 -20 36 -482 825 -675 1155 -76 129 -148 253 -160 275 -13 22
-50 86 -84 143 -34 57 -61 108 -61 113 0 5 -4 9 -10 9 -5 0 -10 7 -10 15 0 13
-53 15 -420 15 l-420 0 -1 -42z"/>
<path d="M3935 8383 l0 -588 220 -365 c120 -201 226 -378 234 -393 19 -34 30
-53 52 -87 18 -27 500 -834 529 -885 22 -39 247 -415 260 -435 5 -8 28 -46 51
-85 22 -38 60 -101 84 -140 24 -38 50 -81 57 -95 8 -14 85 -144 173 -290 87
-146 166 -278 175 -295 10 -16 64 -106 120 -200 57 -93 111 -183 120 -200 10
-16 59 -100 110 -185 51 -85 98 -164 104 -175 6 -11 19 -31 28 -45 13 -21 446
-745 497 -832 29 -51 406 -679 429 -716 12 -20 25 -45 28 -54 4 -10 10 -18 14
-18 5 0 10 -6 12 -13 2 -8 138 -239 303 -515 l300 -502 377 0 378 0 0 582 0
581 -187 321 c-104 176 -192 328 -198 338 -5 9 -17 29 -26 45 -12 22 -193 330
-277 474 -10 15 -61 103 -115 196 -54 92 -121 209 -150 258 -29 50 -151 259
-271 465 -120 206 -229 391 -241 410 -30 47 -125 211 -125 216 0 2 -16 28 -35
58 -19 30 -35 58 -35 61 0 3 -15 29 -34 58 -28 44 -138 231 -203 347 -11 19
-43 73 -70 120 -28 47 -60 101 -70 120 -11 19 -65 112 -120 205 -56 94 -110
186 -120 205 -11 19 -98 168 -193 330 -95 162 -184 315 -198 340 -13 25 -28
50 -32 55 -4 6 -56 93 -115 195 -59 102 -134 229 -166 283 -33 54 -59 100 -59
103 0 2 -11 21 -24 42 -20 33 -100 168 -153 259 -43 77 -483 828 -541 926
l-63 107 -417 0 -418 0 1 -587z"/>
<path d="M5150 8962 c0 -4 4 -12 9 -17 5 -6 18 -26 29 -45 10 -19 151 -255
313 -525 161 -269 298 -499 304 -510 6 -11 90 -150 186 -310 95 -159 179 -299
185 -310 6 -11 96 -162 200 -335 104 -173 194 -324 200 -335 6 -11 128 -216
271 -455 l261 -435 264 1 c145 0 268 3 273 6 7 4 9 587 8 1635 -1 895 -2 1631
-2 1636 -1 10 -2501 9 -2501 -1z"/>
<path d="M910 4495 c-1 -84 -1 -3097 0 -3167 l0 -58 1250 0 c688 0 1250 2
1250 5 0 3 -62 110 -139 238 -76 128 -147 246 -157 264 -11 18 -59 99 -108
180 -135 226 -906 1516 -1241 2078 -164 275 -302 504 -307 509 -4 6 -121 10
-278 10 l-270 1 0 -60z"/>
<path d="M9080 1850 l0 -580 580 0 580 0 0 580 0 580 -580 0 -580 0 0 -580z"/>
</g>
</svg>
